HIERARCHY
ROOT root
{
	OFFSET 0.000000 0.000000 0.000000
	CHANNELS 6 Xposition Yposition Zposition Zrotation Yrotation Xrotation
	JOINT lhip
	{
		OFFSET 0.058581 -0.082280 -0.017664
		CHANNELS 3 Zrotation Yrotation Xrotation
		JOINT lknee
		{
			OFFSET 0.043451 -0.386469 0.008037
			CHANNELS 3 Zrotation Yrotation Xrotation
			JOINT lankle
			{
				OFFSET -0.014790 -0.426874 -0.037428
				CHANNELS 3 Zrotation Yrotation Xrotation
				JOINT ltoe
				{
					OFFSET 0.041054 -0.060286 0.122042
					CHANNELS 3 Zrotation Yrotation Xrotation
					End Site
					{
						OFFSET 0.000000 0.000000 0.000000
					}
				}
			}
		}
	}
	JOINT rhip
	{
		OFFSET -0.060310 -0.090513 -0.013543
		CHANNELS 3 Zrotation Yrotation Xrotation
		JOINT rknee
		{
			OFFSET -0.043257 -0.383688 -0.004843
			CHANNELS 3 Zrotation Yrotation Xrotation
			JOINT rankle
			{
				OFFSET 0.019056 -0.420046 -0.034562
				CHANNELS 3 Zrotation Yrotation Xrotation
				JOINT rtoe
				{
					OFFSET -0.034840 -0.062106 0.130323
					CHANNELS 3 Zrotation Yrotation Xrotation
					End Site
					{
						OFFSET 0.000000 0.000000 0.000000
					}
				}
			}
		}
	}
	JOINT lowerback
	{
		OFFSET 0.004439 0.124404 -0.038385
		CHANNELS 3 Zrotation Yrotation Xrotation
		JOINT upperback
		{
			OFFSET 0.004488 0.137956 0.026820
			CHANNELS 3 Zrotation Yrotation Xrotation
			JOINT chest
			{
				OFFSET -0.002265 0.056032 0.002855
				CHANNELS 3 Zrotation Yrotation Xrotation
				JOINT lowerneck
				{
					OFFSET -0.013390 0.211636 -0.033468
					CHANNELS 3 Zrotation Yrotation Xrotation
					JOINT upperneck
					{
						OFFSET 0.010113 0.088937 0.050410
						CHANNELS 3 Zrotation Yrotation Xrotation
						End Site
						{
							OFFSET 0.000000 0.000000 0.000000
						}
					}
				}
				JOINT lclavicle
				{
					OFFSET 0.071702 0.114000 -0.018898
					CHANNELS 3 Zrotation Yrotation Xrotation
					JOINT lshoulder
					{
						OFFSET 0.122921 0.045205 -0.019046
						CHANNELS 3 Zrotation Yrotation Xrotation
						JOINT lelbow
						{
							OFFSET 0.255332 -0.015649 -0.022946
							CHANNELS 3 Zrotation Yrotation Xrotation
							JOINT lwrist
							{
								OFFSET 0.265709 0.012698 -0.007375
								CHANNELS 3 Zrotation Yrotation Xrotation
								End Site
								{
									OFFSET 0.000000 0.000000 0.000000
								}
							}
						}
					}
				}
				JOINT rclavicle
				{
					OFFSET -0.082954 0.112472 -0.023707
					CHANNELS 3 Zrotation Yrotation Xrotation
					JOINT rshoulder
					{
						OFFSET -0.113228 0.046853 -0.008472
						CHANNELS 3 Zrotation Yrotation Xrotation
						JOINT relbow
						{
							OFFSET -0.260127 -0.014369 -0.031269
							CHANNELS 3 Zrotation Yrotation Xrotation
							JOINT rwrist
							{
								OFFSET -0.269108 0.006794 -0.006027
								CHANNELS 3 Zrotation Yrotation Xrotation
								End Site
								{
									OFFSET 0.000000 0.000000 0.000000
								}
							}
						}
					}
				}
			}
		}
	}
}
MOTION
Frames: 17
Frame Time: 0.033333
-1.939929 0.305360 1.037399 88.023488 -2.003021 89.344959 -4.345860 -1.349200 2.746309 -2.099494 -9.743353 3.432755 4.445715 9.636731 -6.286564 0.000000 -0.000000 0.000000 0.080418 -1.459524 -2.504110 0.777712 0.508704 11.504719 6.665117 -6.693153 -7.790252 0.000000 -0.000000 0.000000 -0.279397 -0.636525 9.497029 -0.353794 -2.356135 -3.994538 -0.829947 -1.383637 3.644821 3.898359 10.427618 -12.386621 -0.539033 3.847687 8.013309 -26.806711 8.439655 -2.087655 -54.183692 -7.059390 8.937059 6.378460 -27.573917 6.806550 -2.070284 -4.768195 -6.523693 29.336339 -5.118701 -1.199653 54.021751 4.143504 13.194360 -12.071907 12.065918 -7.972581 4.452829 0.886809 -5.257872 
-1.940682 0.305279 1.037495 87.868152 -2.031520 89.363881 -4.411440 -1.437860 2.692368 -2.076552 -9.693648 3.452101 4.563077 9.888553 -6.360054 0.000000 -0.000000 0.000000 0.058438 -1.328002 -2.611645 0.814583 0.650967 11.568087 6.655002 -6.891179 -7.805757 0.000000 -0.000000 0.000000 -0.405313 -0.676498 9.500657 -0.263228 -2.283614 -4.073002 -0.795254 -1.390221 3.614386 4.052907 10.100185 -11.808174 -0.752127 3.853974 7.926763 -26.864588 8.467742 -1.988464 -54.232064 -6.960985 9.062136 6.503420 -27.668392 6.900616 -2.307338 -4.661275 -6.735159 29.323683 -5.081835 -1.089927 54.055206 4.300715 13.291039 -11.952609 12.111593 -8.025588 4.520119 0.962538 -5.463469 
-1.941190 0.305330 1.037577 87.865570 -2.024486 89.342427 -4.404296 -1.463424 2.671368 -2.097313 -9.719926 3.484065 4.494906 9.822523 -6.334336 0.000000 -0.000000 0.000000 0.072598 -1.343526 -2.571942 0.807937 0.702487 11.479191 6.639272 -6.884872 -7.840092 0.000000 -0.000000 0.000000 -0.414364 -0.709389 9.402386 -0.241825 -2.365906 -4.038202 -0.814897 -1.405599 3.585553 4.219749 10.181201 -11.620161 -0.560075 3.843011 8.060017 -26.864401 8.508665 -1.940279 -54.207086 -6.911085 9.107364 6.433818 -27.738334 6.977183 -2.450600 -4.574872 -6.680746 29.445513 -5.045874 -1.115114 54.081074 4.286506 13.373224 -11.995802 12.292505 -8.018131 4.688283 0.905663 -5.476786 
-1.942239 0.305351 1.037652 87.686088 -2.002276 89.275557 -4.380684 -1.368059 2.705263 -2.083553 -9.723772 3.408733 4.418763 9.836419 -6.253921 0.000000 -0.000000 0.000000 0.080248 -1.206817 -2.546958 0.802789 0.628969 11.425950 6.487099 -6.886300 -7.855362 0.000000 -0.000000 0.000000 -0.427067 -0.881157 9.554368 -0.255297 -2.350284 -4.113798 -0.808154 -1.350747 3.559599 4.180488 10.291818 -11.484394 -0.658837 3.853170 8.205422 -26.816529 8.614179 -1.968460 -54.222076 -6.866329 9.103190 6.461326 -27.910833 6.987654 -2.500242 -4.656279 -6.777441 29.525910 -4.957383 -1.084246 54.176264 4.410184 13.504614 -11.973973 12.305027 -7.897114 4.816103 0.997092 -5.397723 
-1.942976 0.305541 1.037592 87.739185 -1.964521 89.323464 -4.344075 -1.496502 2.619531 -2.055789 -9.708228 3.381743 4.360734 9.855206 -6.322176 0.000000 -0.000000 0.000000 0.103537 -1.082047 -2.662086 0.844324 0.560885 11.469820 6.541611 -7.019317 -7.777534 0.000000 -0.000000 0.000000 -0.452798 -0.961221 9.551443 -0.232039 -2.344618 -4.181997 -0.771154 -1.361653 3.596340 4.209676 10.348981 -11.558868 -0.678346 3.875227 8.340239 -26.858521 8.661433 -2.151519 -54.184203 -6.901488 9.162750 6.374925 -27.932909 6.950931 -2.417040 -4.647241 -6.732369 29.608994 -5.022815 -1.162073 54.074546 4.396417 13.624683 -11.840258 12.401454 -7.847633 4.879292 0.980550 -5.356358 
-1.942973 0.305492 1.037503 87.734934 -1.936797 89.254547 -4.266627 -1.548750 2.794998 -2.088730 -9.595865 3.229968 4.286960 9.784026 -6.359852 0.000000 -0.000000 0.000000 0.152377 -1.169905 -2.565875 0.857032 0.710314 11.446534 6.484112 -7.123430 -7.851324 0.000000 -0.000000 0.000000 -0.555793 -0.844803 9.465966 -0.153559 -2.335772 -4.111721 -0.699463 -1.473636 3.651456 4.417500 10.151118 -11.699658 -0.814911 3.661807 8.450294 -26.930961 8.682004 -2.090250 -54.110322 -7.029808 9.136122 6.415590 -28.061474 6.969331 -2.337182 -4.750104 -6.730562 29.683809 -5.167512 -1.372005 54.088335 4.274591 13.754976 -11.796635 12.501006 -7.681427 4.867102 0.901252 -5.199097 
-1.942990 0.305596 1.037334 87.718976 -1.924619 89.214244 -4.168134 -1.465146 2.926762 -2.162537 -9.632227 3.086393 4.177231 9.780577 -6.552274 0.000000 -0.000000 0.000000 0.194454 -1.167649 -2.574657 0.789846 0.732264 11.512925 6.379900 -7.112598 -7.943034 0.000000 -0.000000 0.000000 -0.660937 -0.868415 9.405003 -0.119688 -2.353753 -4.162290 -0.633584 -1.473804 3.602502 4.407060 10.248734 -11.162000 -0.681352 3.842590 8.562723 -26.837370 8.748363 -2.024313 -54.130231 -7.059677 9.069032 6.433631 -28.300944 6.891063 -2.337433 -4.730736 -6.738223 29.608902 -5.195334 -1.155016 54.179717 4.242582 13.705257 -11.640579 12.575258 -7.509896 5.127719 0.884199 -5.188292 
-1.943328 0.305964 1.037385 87.861160 -1.939691 89.206192 -4.165573 -1.547766 2.976100 -2.197512 -9.685976 2.924306 4.264226 9.706575 -6.366794 0.000000 -0.000000 0.000000 0.167827 -1.267873 -2.616258 0.782847 0.734837 11.591759 6.386976 -7.198528 -7.945798 0.000000 -0.000000 0.000000 -0.746092 -0.836668 9.335516 -0.079363 -2.439476 -4.145943 -0.610029 -1.541709 3.590438 4.498688 10.155588 -11.112714 -0.678731 3.754271 8.592566 -26.865339 8.702382 -2.063887 -54.024380 -7.185149 9.084483 6.415729 -28.312247 6.837005 -2.357653 -4.591896 -6.774016 29.696100 -5.255891 -1.202698 54.187903 4.140414 13.765059 -11.653665 12.446476 -7.548386 5.128526 0.982300 -5.211678 
-1.943584 0.306163 1.037315 87.919123 -1.913603 89.126546 -4.088904 -1.491030 3.055904 -2.242437 -9.636177 2.916155 4.200339 9.573794 -6.615388 0.000000 -0.000000 0.000000 0.173405 -1.310569 -2.554383 0.794797 0.708607 11.612586 6.331313 -7.218773 -7.908896 0.000000 -0.000000 0.000000 -0.826850 -0.785108 9.277223 -0.047453 -2.438381 -4.071824 -0.578792 -1.572666 3.601128 4.426537 10.226741 -10.979147 -0.652907 3.826197 8.679867 -26.741600 8.667158 -1.972275 -54.112740 -7.382229 9.039680 6.525474 -28.405615 6.857960 -2.298210 -4.618358 -6.963286 29.712700 -5.356920 -1.243951 54.249647 4.107521 13.771243 -11.623902 12.270548 -7.333965 5.155600 0.924065 -5.145278 
-1.943787 0.306477 1.037233 88.048284 -1.907688 89.137459 -4.044314 -1.509542 3.044167 -2.322247 -9.729490 2.861101 4.140158 9.612496 -6.574020 0.000000 -0.000000 0.000000 0.183041 -1.272240 -2.550103 0.789095 0.677991 11.537140 6.190710 -7.368980 -7.913324 0.000000 -0.000000 0.000000 -0.878823 -0.847177 9.143350 -0.041309 -2.499398 -4.072964 -0.606828 -1.619277 3.649803 4.536946 10.238443 -11.140154 -0.578635 3.718599 8.691151 -26.784554 8.746258 -2.086083 -53.867625 -7.407415 9.109479 6.502117 -28.695800 6.841201 -2.238239 -4.789911 -6.994839 29.827449 -5.462805 -1.391107 54.203026 3.923326 13.863998 -11.513624 12.255225 -7.258642 5.190908 0.852348 -5.158067 
-1.943834 0.307101 1.037249 88.226888 -1.900986 89.050675 -4.078197 -1.576831 3.128325 -2.299425 -9.770462 2.835278 4.184053 9.520161 -6.543716 0.000000 -0.000000 0.000000 0.099091 -1.429646 -2.439400 0.838751 0.587268 11.466693 6.255769 -7.411843 -7.731857 0.000000 -0.000000 0.000000 -0.802667 -0.850250 9.115003 -0.047413 -2.626365 -4.031711 -0.655757 -1.624723 3.646914 4.532681 10.065889 -11.142463 -0.603673 3.568914 8.742026 -26.783879 8.807712 -2.207754 -53.823948 -7.536071 9.075572 6.458116 -28.674995 6.911367 -2.219409 -4.706403 -6.989261 29.798718 -5.527158 -1.383755 54.223311 3.901784 13.840520 -11.477195 12.070541 -7.171421 5.148090 0.723332 -5.021121 
-1.943833 0.307493 1.037131 88.225972 -1.905434 89.032393 -4.095663 -1.411064 3.110301 -2.318829 -9.930047 2.929305 4.257084 9.509830 -6.613488 0.000000 -0.000000 0.000000 0.043000 -1.450568 -2.474664 0.885797 0.626154 11.566783 6.267103 -7.314719 -7.980449 0.000000 -0.000000 0.000000 -0.891843 -0.811887 9.120097 -0.030472 -2.548309 -4.108403 -0.594132 -1.647917 3.604539 4.401595 10.227426 -11.089595 -0.706736 3.800274 8.778382 -26.783777 8.811679 -2.184587 -53.848357 -7.552437 9.032367 6.539967 -28.783282 6.792462 -2.159873 -4.630603 -7.193322 29.731969 -5.605578 -1.306845 54.197573 3.800861 13.815082 -11.421550 11.957411 -7.094985 5.215547 0.697609 -4.998602 
-1.943755 0.307983 1.037093 88.294646 -1.890889 88.965008 -4.117714 -1.434074 3.107644 -2.355725 -9.922103 3.032082 4.251466 9.412760 -6.611941 0.000000 -0.000000 0.000000 0.008060 -1.500655 -2.375931 0.911065 0.645120 11.587316 6.224782 -7.306377 -8.063643 0.000000 -0.000000 0.000000 -0.874228 -0.831290 9.149865 -0.059907 -2.547558 -4.168516 -0.613787 -1.576919 3.546011 4.400126 10.260926 -10.786489 -0.592859 3.996877 8.634641 -26.708197 8.889105 -2.088523 -53.880777 -7.557070 8.967103 6.612221 -29.118332 6.804422 -2.288986 -4.451748 -7.259138 29.787949 -5.621861 -1.188933 54.145656 3.648494 13.718908 -11.454220 11.836900 -7.140218 5.372008 0.703907 -4.959672 
-1.944319 0.308556 1.037100 88.131186 -1.860643 88.957573 -4.145330 -1.452374 3.044375 -2.372434 -9.923346 3.105364 4.284543 9.605107 -6.632903 0.000000 -0.000000 0.000000 -0.005821 -1.465214 -2.521194 0.961092 0.737531 11.756492 6.538555 -7.304003 -7.948471 0.000000 -0.000000 0.000000 -0.946101 -0.723531 9.128017 -0.042366 -2.294081 -4.104747 -0.554222 -1.507319 3.584227 4.321907 10.569154 -11.256595 -0.344951 3.995363 8.840982 -26.724034 8.838232 -2.223072 -53.944925 -7.608804 9.111845 6.597076 -29.179780 6.768931 -2.105164 -4.657325 -7.177099 29.903946 -5.713671 -1.320833 53.932714 3.554145 13.774536 -11.374746 11.844103 -7.227959 5.302401 0.659231 -4.977217 
-1.944272 0.309231 1.037082 88.047786 -1.823512 88.945033 -4.194214 -1.499757 3.089735 -2.302828 -9.946426 3.066659 4.347704 9.674150 -6.627644 0.000000 -0.000000 0.000000 0.036229 -1.536259 -2.499336 0.878536 0.838405 11.696088 6.517660 -7.269505 -7.993707 0.000000 -0.000000 0.000000 -0.857317 -0.618001 9.088929 -0.033560 -2.232545 -4.080475 -0.561620 -1.501464 3.616538 4.315412 10.481173 -11.531068 -0.518847 3.871030 8.800656 -26.838879 8.899041 -2.265237 -53.933609 -7.557497 9.144967 6.659701 -29.268157 6.700017 -2.043449 -4.703105 -7.172293 29.894839 -5.712597 -1.329924 53.897775 3.500509 13.729935 -11.432676 11.512320 -7.383819 5.092425 0.534539 -4.950048 
-1.944546 0.310080 1.037051 88.080398 -1.795638 88.916578 -4.255289 -1.706098 3.115802 -2.266404 -9.838341 3.015384 4.360150 9.758000 -6.509622 0.000000 -0.000000 0.000000 0.050318 -1.453058 -2.527665 0.843536 0.858283 11.762747 6.331663 -7.452665 -8.198177 0.000000 -0.000000 0.000000 -0.805377 -0.507973 9.086364 -0.014079 -2.123196 -4.087541 -0.548487 -1.542315 3.639140 4.419296 10.305275 -11.618332 -0.571455 3.751096 8.825262 -26.952768 8.863053 -2.202176 -53.911347 -7.649483 9.193130 6.632001 -29.278753 6.731874 -2.087927 -4.649168 -7.208736 29.833458 -5.743348 -1.354885 53.871384 3.384313 13.771649 -11.358640 11.370740 -7.364424 5.130242 0.576812 -4.986383 
-1.944191 0.310725 1.036962 87.850901 -1.781668 88.921526 -4.230593 -1.471647 3.209103 -2.320827 -9.703577 2.907747 4.287641 9.562084 -6.578854 0.000000 -0.000000 0.000000 0.024664 -1.533482 -2.552903 0.802974 0.972707 11.817641 6.393657 -7.254512 -8.199760 0.000000 -0.000000 0.000000 -0.740177 -0.412995 8.934113 -0.039522 -2.038589 -4.011789 -0.603509 -1.433863 3.643239 4.390274 10.386404 -11.538896 -0.569076 3.829547 8.868067 -26.951251 8.946590 -2.187224 -53.935278 -7.509211 9.219892 6.627759 -29.253528 6.897844 -2.037941 -4.809479 -7.252453 29.863307 -5.720224 -1.197490 53.824034 3.403615 13.706118 -11.282739 11.148388 -7.343611 5.124420 0.486910 -5.000879 
